<svg xmlns="http://www.w3.org/2000/svg" style="display: none;">
  <defs>
    <symbol id="katakana-project" viewBox="0 0 751 136">
      <path d="M619.479 85.8327L622.307 75.089C627.587 75.089 632.018 74.5649 635.6 73.5167C639.183 72.4686 642.672 70.7216 646.066 68.2759C649.46 65.8302 653.137 62.5546 657.096 58.4493C662.565 52.8591 667.939 48.6227 673.218 45.7403C678.687 42.8578 684.061 40.8925 689.34 39.8443C694.809 38.7961 700.183 38.272 705.462 38.272C711.873 38.272 717.813 39.0582 723.281 40.6304C728.75 42.1153 733.558 44.1243 737.706 46.6574C741.855 49.1905 745.06 51.9856 747.323 55.0428C749.774 58.0126 751 60.9824 751 63.9522C751 69.193 749.02 73.3857 745.06 76.5302C741.1 79.5874 736.009 81.8148 729.787 83.2123C723.753 84.5225 717.436 85.1776 710.836 85.1776C704.991 85.1776 697.449 84.6535 688.209 83.6054C679.158 82.5572 667.656 79.8931 653.702 75.6131L664.733 67.3588C673.973 70.0665 682.269 71.9445 689.623 72.9927C697.166 73.9535 703.388 74.4339 708.291 74.4339C713.759 74.4339 718.096 74.0845 721.302 73.3857C724.507 72.5996 726.864 71.5078 728.373 70.1102C729.881 68.7126 730.635 67.1404 730.635 65.3934C730.635 62.8604 729.315 60.3273 726.676 57.7942C724.036 55.2611 720.642 53.1648 716.493 51.5052C712.533 49.8456 708.291 49.0158 703.765 49.0158C700.371 49.0158 697.071 49.4525 693.866 50.326C690.66 51.1995 687.361 52.8154 683.966 55.1738C680.572 57.5322 676.707 60.9387 672.37 65.3934C667.844 70.1102 663.508 73.8661 659.359 76.6613C655.399 79.369 651.345 81.378 647.197 82.6882C643.049 83.9984 638.712 84.8282 634.186 85.1776C629.849 85.6144 624.947 85.8327 619.479 85.8327Z" />
      <path d="M379.174 85.8327L382.002 75.089C388.036 75.089 392.939 74.9143 396.71 74.5649C400.481 74.1282 403.592 73.1237 406.044 71.5514C408.684 69.8918 411.135 67.3151 413.398 63.8212C415.66 60.3273 418.3 55.4358 421.317 49.1468L442.53 51.8983C441.399 54.0819 440.079 56.7024 438.571 59.7595C437.062 62.8167 436.308 65.6118 436.308 68.1449C436.308 69.5424 437.062 70.7653 438.571 71.8135C440.079 72.8616 442.625 73.6914 446.207 74.3029C449.979 74.827 454.975 75.089 461.198 75.089C466.855 75.089 471.475 74.8706 475.057 74.4339C478.64 73.9972 481.563 72.949 483.825 71.2894C486.277 69.6298 488.445 66.9657 490.331 63.2971C492.216 59.6285 494.196 54.606 496.27 48.2297L517.766 50.0639C517.201 51.6362 516.541 53.5579 515.786 55.8289C515.032 58.0999 514.278 60.3709 513.524 62.642C512.958 64.8257 512.675 66.66 512.675 68.1449C512.675 69.3677 513.241 70.5469 514.372 71.6824C515.692 72.7306 518.143 73.5604 521.726 74.1718C525.497 74.7833 531.06 75.089 538.414 75.089C547.842 75.089 554.63 74.1719 558.778 72.3376C563.115 70.5033 565.284 67.7081 565.284 63.9522C565.284 61.9432 565.189 59.8469 565.001 57.6632C564.812 55.3921 564.435 52.9027 563.869 50.195C563.492 47.3999 562.832 44.2117 561.89 40.6304L582.537 39.9753C583.668 47.0505 584.894 52.8591 586.214 57.4011C587.722 61.9432 589.797 65.5245 592.436 68.1449C595.265 70.678 599.036 72.4686 603.75 73.5167C608.464 74.5649 614.687 75.089 622.418 75.089C626.377 75.089 629.206 75.6131 630.903 76.6613C632.789 77.6221 633.731 78.8013 633.731 80.1988C633.731 81.5964 632.411 82.9066 629.772 84.1295C627.132 85.265 623.738 85.8327 619.589 85.8327C613.178 85.8327 607.427 85.4397 602.336 84.6535C597.433 83.7801 593.096 82.6446 589.325 81.247C585.743 79.7621 582.726 78.1025 580.274 76.2682C578.012 74.3465 576.409 72.3375 575.466 70.2412L580.557 71.0273C578.483 74.958 575.183 78.0151 570.658 80.1988C566.321 82.2952 561.135 83.7801 555.101 84.6535C549.067 85.4397 542.656 85.8327 535.868 85.8327C527.571 85.8327 520.783 85.3523 515.504 84.3915C510.224 83.4307 506.075 81.9894 503.059 80.0678C500.23 78.0588 498.344 75.5257 497.402 72.4686H507.018C503.436 76.2245 499.664 79.0633 495.705 80.9849C491.745 82.9066 486.842 84.2168 480.997 84.9156C475.151 85.527 467.42 85.8327 457.804 85.8327C453.09 85.8327 447.999 85.4833 442.53 84.7846C437.251 84.0858 432.631 82.7319 428.671 80.7229C424.711 78.6266 422.354 75.5257 421.6 71.4204L430.085 70.6343C426.88 75.089 422.92 78.4082 418.206 80.5919C413.681 82.6882 408.212 84.0858 401.801 84.7846C395.39 85.4833 387.848 85.8327 379.174 85.8327ZM501.079 13.7711C497.119 13.7711 493.725 13.1597 490.896 11.9368C488.256 10.6266 486.937 9.098 486.937 7.35105C486.937 5.6041 488.256 4.07552 490.896 2.76531C493.725 1.45509 497.119 0.799988 501.079 0.799988C504.85 0.799988 508.055 1.45509 510.695 2.76531C513.524 4.07552 514.938 5.6041 514.938 7.35105C514.938 9.098 513.524 10.6266 510.695 11.9368C508.055 13.1597 504.85 13.7711 501.079 13.7711ZM481.845 28.1834C477.886 28.1834 474.491 27.572 471.663 26.3491C469.023 25.0389 467.703 23.5103 467.703 21.7634C467.703 20.0164 469.023 18.4879 471.663 17.1776C474.491 15.8674 477.886 15.2123 481.845 15.2123C485.617 15.2123 488.822 15.8674 491.462 17.1776C494.29 18.4879 495.705 20.0164 495.705 21.7634C495.705 23.5103 494.29 25.0389 491.462 26.3491C488.822 27.572 485.617 28.1834 481.845 28.1834ZM520.312 28.1834C516.352 28.1834 512.958 27.572 510.13 26.3491C507.49 25.0389 506.17 23.5103 506.17 21.7634C506.17 20.0164 507.49 18.4879 510.13 17.1776C512.958 15.8674 516.352 15.2123 520.312 15.2123C524.083 15.2123 527.289 15.8674 529.928 17.1776C532.757 18.4879 534.171 20.0164 534.171 21.7634C534.171 23.5103 532.757 25.0389 529.928 26.3491C527.289 27.572 524.083 28.1834 520.312 28.1834Z" />
      <path d="M268.163 115.575L259.96 105.617C273.725 103.521 285.133 101.119 294.184 98.4108C303.424 95.703 310.683 92.8205 315.963 89.7634C321.431 86.7062 325.297 83.6054 327.56 80.4609C329.822 77.229 330.954 74.1282 330.954 71.1584C330.954 66.8783 328.88 62.5546 324.731 58.1873C320.771 53.7325 316.34 49.5399 311.438 45.6092L332.085 40.7614C335.668 43.8186 338.779 46.8321 341.419 49.8019C344.247 52.7717 346.699 55.5668 348.773 58.1873C351.035 60.8077 352.827 63.2097 354.147 65.3934C356.787 69.1494 360.181 71.7261 364.329 73.1237C368.666 74.4339 374.511 75.089 381.865 75.089C385.825 75.089 388.653 75.6131 390.35 76.6613C392.236 77.6221 393.179 78.8013 393.179 80.1988C393.179 81.5964 391.859 82.9066 389.219 84.1295C386.579 85.265 383.185 85.8327 379.037 85.8327C370.74 85.8327 363.952 85.1776 358.672 83.8674C353.581 82.4699 349.716 80.6792 347.076 78.4956C344.436 76.2245 342.645 73.8661 341.702 71.4204L350.753 73.7788C350.753 79.5437 347.924 84.7846 342.267 89.5013C336.799 94.3054 329.728 98.4544 321.054 101.948C312.38 105.53 303.33 108.456 293.901 110.727C284.473 112.998 275.894 114.614 268.163 115.575Z" />
      <path d="M156.931 115.313L151.84 104.569C163.154 103.87 173.524 102.865 182.952 101.555C192.569 100.332 200.771 98.5418 207.56 96.1834C214.536 93.825 219.91 90.7242 223.682 86.8809C227.453 83.0376 229.338 78.2335 229.338 72.4686C229.338 69.7608 228.773 67.1841 227.641 64.7383C226.51 62.2053 224.813 59.9779 222.55 58.0563C220.288 56.1346 217.553 54.606 214.348 53.4705C211.331 52.335 207.843 51.7672 203.883 51.7672C199.546 51.7672 195.586 52.5534 192.003 54.1256C188.609 55.6105 185.875 57.5322 183.801 59.8906C181.915 62.2489 180.973 64.6073 180.973 66.9657C180.973 68.8 181.727 70.4159 183.235 71.8135C184.932 73.1237 187.666 74.1282 191.438 74.827C195.209 75.5257 200.112 75.8751 206.145 75.8751C211.614 75.8751 217.082 75.6131 222.55 75.089C228.207 74.5649 233.015 73.8661 236.975 72.9927L238.107 82.1642C233.581 83.6491 228.207 84.6972 221.985 85.3087C215.951 85.9201 209.822 86.2258 203.6 86.2258C196.435 86.2258 190.023 85.8764 184.367 85.1776C178.898 84.4789 174.184 83.4744 170.225 82.1642C166.453 80.7666 163.531 79.0196 161.456 76.9233C159.571 74.827 158.628 72.3812 158.628 69.5861C158.628 66.2669 159.759 62.9477 162.022 59.6285C164.285 56.222 167.49 53.1211 171.639 50.326C175.787 47.5309 180.784 45.3035 186.629 43.6439C192.475 41.897 198.98 41.0235 206.145 41.0235C213.688 41.0235 220.288 41.9406 225.944 43.7749C231.601 45.5219 236.315 47.9239 240.086 50.9811C243.858 54.0383 246.686 57.4885 248.572 61.3318C250.457 65.1751 251.4 69.1494 251.4 73.2547C251.4 81.378 247.817 88.3658 240.652 94.2181C233.675 100.158 223.116 104.874 208.974 108.368C195.02 111.862 177.673 114.177 156.931 115.313Z" />
      <path d="M94.1863 136.8C84.004 136.8 73.4446 136.232 62.508 135.097C51.5715 134.049 41.3892 132.171 31.9611 129.463C22.5331 126.842 14.8021 123.261 8.76809 118.719C2.9227 114.264 0 108.63 0 101.817C0 95.5283 2.73414 89.6324 8.20241 84.1295C13.6707 78.6266 21.4017 73.6478 31.3954 69.193C41.5777 64.7383 53.5514 60.9824 67.3163 57.9252C81.0813 54.8681 96.2605 52.6844 112.854 51.3742L118.794 61.5938C105.029 62.7293 92.3007 64.4326 80.6099 66.7036C68.9191 68.9747 58.7368 71.7698 50.063 75.089C41.5777 78.3209 34.9781 82.0331 30.2641 86.2258C25.55 90.5058 23.193 95.1789 23.193 100.245C23.193 104.35 24.7015 107.888 27.7185 110.858C30.7355 113.828 34.6952 116.273 39.5978 118.195C44.689 120.204 50.3458 121.776 56.5683 122.912C62.7909 124.047 69.1077 124.833 75.5187 125.27C82.1184 125.794 88.3409 126.056 94.1863 126.056C104.18 126.056 114.362 125.62 124.733 124.746C135.104 123.96 144.532 122.737 153.017 121.077L160.371 130.249C155.846 131.297 149.812 132.302 142.269 133.262C134.915 134.311 126.996 135.14 118.511 135.752C110.025 136.451 101.917 136.8 94.1863 136.8ZM47.5174 67.3587C39.975 66.4853 33.1868 64.913 27.1528 62.642C21.1188 60.371 16.3105 57.6632 12.7279 54.5187C9.33378 51.3742 7.63673 48.055 7.63673 44.5611C7.63673 39.0582 10.3709 34.4724 15.8391 30.8038C21.496 27.1353 28.6613 24.3838 37.3351 22.5495C46.1975 20.7152 55.5313 19.7981 65.3364 19.7981C69.6733 19.7981 74.2931 19.9728 79.1957 20.3221C84.0983 20.6715 88.8123 21.1956 93.3378 21.8944L88.5294 31.983C84.7582 31.5463 80.7984 31.1969 76.6501 30.9349C72.5018 30.6728 68.7305 30.5418 65.3364 30.5418C58.5482 30.5418 52.5143 31.1096 47.2346 32.2451C41.9549 33.3806 37.8065 34.9528 34.7895 36.9618C31.7726 38.8835 30.2641 41.1545 30.2641 43.7749C30.2641 46.1333 31.6783 48.2733 34.5067 50.195C37.5237 52.0293 41.2949 53.6452 45.8204 55.0428C50.3458 56.353 54.9656 57.3575 59.6796 58.0562C64.3936 58.6677 68.542 58.9297 72.1246 58.8424L47.5174 67.3587Z" />
    </symbol>
    <symbol id="katakana-profile" viewBox="0 0 136 766">
      <path d="M90.6898 197.106L74.0698 192.956C74.0698 175.525 74.0023 162.105 73.8671 152.698C73.732 143.014 73.5969 135.959 73.4618 131.532C73.1915 127.105 73.0564 124.061 73.0564 122.401C71.7052 127.381 69.6108 133.192 66.7732 139.832C63.8006 146.473 60.0847 152.283 55.6257 157.263C51.0316 162.244 45.6267 164.734 39.4111 164.734C31.7092 164.734 24.9531 161.137 19.1428 153.943C13.3326 146.473 8.80603 136.374 5.56311 123.646C2.32019 110.642 0.69873 95.8392 0.69873 79.2381C0.69873 72.8743 0.968964 66.0955 1.50945 58.9017C2.04994 51.7079 2.86067 44.7907 3.94164 38.1503L19.5482 45.2058C18.8726 50.7395 18.3321 56.5499 17.9267 62.637C17.5214 68.724 17.3187 74.2577 17.3187 79.2381C17.3187 89.1988 18.2645 98.0527 20.1562 105.8C21.9128 113.547 24.4126 119.634 27.6555 124.061C30.8984 128.488 34.817 130.702 39.4111 130.702C42.9243 130.702 46.1672 129.18 49.1399 126.136C51.9774 123.093 54.5447 119.081 56.8418 114.101C59.1389 109.12 61.0306 103.586 62.5169 97.4994C64.0032 91.4123 65.1518 85.4635 65.9625 79.6531C66.7732 73.5661 67.111 68.1707 66.9759 63.467C66.4354 60.1468 65.9625 57.1032 65.5571 54.3364C65.1518 51.5695 64.6789 48.526 64.1384 45.2058C63.4628 41.6089 62.5845 37.3203 61.5035 32.3399C60.4225 27.0829 59.0037 20.4424 57.2472 12.4185L72.043 0.797687C75.6913 19.3356 78.9342 38.2886 81.7717 57.6566C84.6093 76.7479 86.8388 97.6377 88.4603 120.326C89.9466 142.737 90.6898 168.331 90.6898 197.106Z" />
      <path d="M90.6897 437.042L74.0697 432.892C74.0697 425.145 73.259 419.058 71.6375 414.631C70.016 409.927 67.3136 405.5 63.5302 401.35C59.7468 396.923 54.6797 391.389 48.329 384.749C41.8432 378.108 36.5734 371.468 32.5198 364.827C28.331 357.91 25.0881 351.27 22.791 344.906C20.3588 338.265 18.6698 332.04 17.724 326.23C16.7781 320.419 16.3052 315.024 16.3052 310.043C16.3052 300.913 17.3186 292.751 19.3454 285.557C21.2371 278.363 24.5476 271.584 29.2769 265.22C33.871 258.857 40.2217 252.355 48.329 245.714C55.7607 239.35 61.3683 233.678 65.1517 228.698C68.8 223.441 71.2321 218.046 72.4482 212.512C73.5292 206.701 74.0697 200.199 74.0697 193.005C74.0697 187.195 74.8804 183.045 76.5019 180.555C77.9882 177.788 79.8124 176.404 81.9743 176.404C84.1363 176.404 86.1631 178.341 88.0548 182.215C89.8114 186.088 90.6897 191.069 90.6897 197.156C90.6897 207.946 89.8114 217.907 88.0548 227.038C86.2982 235.892 83.5282 243.362 79.7448 249.449L75.4885 243.639C79.6773 246.682 83.1228 250.833 85.8253 256.09C88.3926 261.07 90.2843 266.742 91.5004 273.106C92.8516 279.47 93.5272 286.249 93.5272 293.442C93.5272 302.573 92.5814 311.98 90.6897 321.664C88.798 331.072 86.0955 340.202 82.5824 349.056C79.0692 357.91 74.948 365.657 70.2187 372.298C76.4343 379.492 81.0285 386.409 84.0012 393.049C86.8387 399.413 88.6629 406.053 89.4736 412.971C90.2843 419.888 90.6897 427.912 90.6897 437.042ZM54.8149 356.527C58.5983 351.823 61.9088 346.843 64.7463 341.586C67.5839 336.052 69.9485 330.518 71.8402 324.985C73.5968 319.451 74.948 314.055 75.8938 308.798C76.7046 303.265 77.1099 298.284 77.1099 293.857C77.1099 284.173 75.4209 277.118 72.0429 272.691C68.6648 267.987 63.9356 268.126 57.8551 273.106C54.7473 275.596 51.7071 278.225 48.7344 280.991C45.7617 283.482 43.0593 286.249 40.6271 289.292C38.0598 292.336 36.1005 295.794 34.7493 299.668C33.263 303.541 32.5198 307.83 32.5198 312.534C32.5198 316.684 33.1954 321.111 34.5466 325.815C35.8978 330.242 38.1949 335.084 41.4378 340.341C44.6807 345.321 49.1397 350.716 54.8149 356.527Z" />
      <path d="M90.6895 591.872L74.0695 587.722C74.0695 573.888 73.5966 563.097 72.6507 555.35C71.5697 547.603 69.6105 541.792 66.7729 537.919C63.8003 533.768 59.5439 530.448 54.0039 527.958C48.4639 525.468 41.2349 522.424 32.3169 518.827L35.3571 486.455C37.7893 487.562 40.4918 488.807 43.4644 490.19C46.4371 491.574 49.4098 492.819 52.3825 493.926C55.22 494.756 57.7198 495.171 59.8817 495.171C61.9085 495.171 63.8003 494.894 65.5568 494.341C67.3134 493.787 68.7998 491.712 70.0158 488.115C71.2319 484.518 72.2454 478.431 73.0561 469.854C73.7317 461.277 74.0695 448.964 74.0695 432.916C74.0695 427.106 74.8802 422.956 76.5017 420.466C77.988 417.699 79.8122 416.315 81.9741 416.315C84.1361 416.315 86.1629 418.252 88.0546 422.126C89.8112 425.999 90.6895 430.98 90.6895 437.067C90.6895 453.945 90.2841 467.364 89.4734 477.325C88.5275 487.285 87.1763 494.894 85.4197 500.151C83.6632 505.131 81.5012 508.728 78.9339 510.942C76.2315 512.879 73.1236 514.4 69.6105 515.507L70.0158 503.056C74.3397 507.483 77.8529 512.325 80.5553 517.582C83.2578 522.563 85.3522 528.373 86.8385 535.013C88.3248 541.654 89.3382 549.678 89.8787 559.085C90.4192 568.216 90.6895 579.145 90.6895 591.872ZM128.996 487.285C128.996 493.096 127.983 498.076 125.956 502.226C124.065 506.1 121.767 508.037 119.065 508.037C116.363 508.037 113.998 506.1 111.971 502.226C109.944 498.076 108.931 493.096 108.931 487.285C108.931 481.751 109.944 477.048 111.971 473.174C113.998 469.024 116.363 466.949 119.065 466.949C121.767 466.949 124.065 469.024 125.956 473.174C127.983 477.048 128.996 481.751 128.996 487.285ZM128.996 544.144C128.996 549.954 127.983 554.935 125.956 559.085C124.065 562.959 121.767 564.896 119.065 564.896C116.363 564.896 113.998 562.959 111.971 559.085C109.944 554.935 108.931 549.954 108.931 544.144C108.931 538.61 109.944 533.907 111.971 530.033C113.998 525.883 116.363 523.808 119.065 523.808C121.767 523.808 124.065 525.883 125.956 530.033C127.983 533.907 128.996 538.61 128.996 544.144Z" />
      <path d="M136.699 754.763L121.295 766.798C118.052 746.6 114.336 729.861 110.147 716.58C105.958 703.022 101.499 692.37 96.7701 684.623C92.0408 676.599 87.244 670.927 82.3796 667.607C77.3801 664.286 72.5833 662.626 67.9891 662.626C61.3682 662.626 54.6797 665.67 47.9236 671.757C41.0324 677.567 34.5465 684.069 28.4661 691.263L20.9668 660.966C25.6961 655.709 30.3578 651.144 34.9519 647.27C39.546 643.12 43.8699 639.523 47.9236 636.48C51.9772 633.159 55.6931 630.531 59.0711 628.594C64.8814 624.72 68.8674 619.74 71.0294 613.653C73.0562 607.289 74.0696 598.712 74.0696 587.921C74.0696 582.111 74.8804 577.96 76.5018 575.47C77.9882 572.703 79.8123 571.32 81.9743 571.32C84.1362 571.32 86.163 573.257 88.0547 577.13C89.8113 581.004 90.6896 585.984 90.6896 592.071C90.6896 604.246 89.6762 614.206 87.6494 621.954C85.4874 629.424 82.7174 635.096 79.3394 638.97C75.8262 642.843 72.1779 645.472 68.3945 646.855L72.0428 633.574C80.9608 633.574 89.0681 637.725 96.3647 646.025C103.796 654.049 110.215 664.425 115.62 677.152C121.16 689.88 125.686 703.161 129.199 716.995C132.712 730.829 135.212 743.419 136.699 754.763Z" />
    </symbol>
  </defs>
</svg>